PathFileType	4	(X/Y/Z)	./resultDataOpenSim/trcMotMarkerGrf/sub09/qtm-13-08.trc
DataRate	CameraRate	NumFrames	NumMarkers	Units	OrigDataRate	OrigDataStartFrame	OrigNumFrames
250.000000	250.000000	7	24	m	250.000000	360	479
Frame#	Time	L.Toe.Tip			R.Toe.Tip			L.Ankle.Lat			R.Ankle.Lat			L.Ankle.Med			R.Ankle.Med			L.Heel			R.Heel			L.Knee.Lat			R.Knee.Lat			L.Knee.Med			R.Knee.Med			L.Thigh.Upper			R.Thigh.Upper			L.ASIS			R.ASIS			V.Sacral			L.Acromium			R.Acromium			C7			L.Elbow			R.Elbow			L.Wrist.Lat			R.Wrist.Lat
		X1	Y1	Z1	X2	Y2	Z2	X3	Y3	Z3	X4	Y4	Z4	X5	Y5	Z5	X6	Y6	Z6	X7	Y7	Z7	X8	Y8	Z8	X9	Y9	Z9	X10	Y10	Z10	X11	Y11	Z11	X12	Y12	Z12	X13	Y13	Z13	X14	Y14	Z14	X15	Y15	Z15	X16	Y16	Z16	X17	Y17	Z17	X18	Y18	Z18	X19	Y19	Z19	X20	Y20	Z20	X21	Y21	Z21	X22	Y22	Z22	X23	Y23	Z23	X24	Y24	Z24

360	1.436	0.84430542	0.11931778	-0.066921753	1.0650403	0.039861249	0.10155868	0.77286367	0.2562701	-0.097198566	0.91777285	0.056392798	0.13667015	0.79765642	0.24374619	-0.0015948879	0.92689647	0.092478886	0.043572687	0.69080352	0.27971282	-0.056261819	0.84678694	0.036226548	0.089556307	1.0961425	0.50375179	-0.10424531	1.0257943	0.50033558	0.18310256	1.0990299	0.49082162	0.023128597	1.0103393	0.48740102	0.057081569	0.93194307	0.88022636	-0.13473504	0.92483616	0.89675994	0.23650358	1.0067929	0.96771841	-0.074526919	1.0084046	0.97902656	0.16351619	0.84121177	1.0320244	0.039159612	1.0321658	1.4239612	-0.11755164	0.99855354	1.4308919	0.21118405	0.94762256	1.4800133	0.042069825	0.87409775	1.0933055	-0.18778181	0.87103203	1.0833625	0.30316667	1.0028855	0.85954231	-0.20207578	1.0645407	0.88600903	0.31058498
361	1.44	0.86162802	0.11755792	-0.066750726	1.0650964	0.039841711	0.10149548	0.78671458	0.25263537	-0.096133779	0.917892	0.056507061	0.13655034	0.81256318	0.24029406	-0.00081954139	0.92705389	0.092589973	0.043474097	0.70376	0.27485003	-0.055094074	0.84714407	0.036537787	0.089310586	1.1051303	0.50665126	-0.1041746	1.0274257	0.50020589	0.18314624	1.1075319	0.49388071	0.022732089	1.0114937	0.48736954	0.056807869	0.93761606	0.88177419	-0.13484535	0.92983332	0.89740261	0.23652673	1.0120659	0.9692693	-0.074319865	1.0136865	0.9799458	0.16365949	0.84645611	1.0329923	0.039339966	1.0367715	1.4251069	-0.11783529	1.0035184	1.4323138	0.21091428	0.95237201	1.4811555	0.041831509	0.87829079	1.0946879	-0.18778003	0.87627057	1.0845558	0.30315963	1.0068331	0.86070137	-0.20292403	1.0710795	0.88835327	0.30987608
362	1.444	0.87902492	0.11570405	-0.066491642	1.0651429	0.039808615	0.10142491	0.80066395	0.24878221	-0.095082423	0.91802318	0.056623531	0.13642672	0.82768413	0.23675056	-0.00011404075	0.92721992	0.09267454	0.043364734	0.7183334	0.26915862	-0.053595705	0.84742811	0.03689236	0.089091261	1.113967	0.50944295	-0.10417954	1.0291176	0.50004699	0.18317868	1.1154216	0.4967842	0.022204062	1.0128056	0.48727144	0.056650998	0.94353657	0.88326567	-0.1349112	0.93485845	0.89804666	0.23649594	1.0173385	0.97074355	-0.074124003	1.0189725	0.98079752	0.16380193	0.85171658	1.0339027	0.039534797	1.041353	1.4261968	-0.11812997	1.0084813	1.4336687	0.21064782	0.9571219	1.4822315	0.041602419	0.88249839	1.0959823	-0.18777696	0.88151566	1.0856856	0.30316735	1.0107692	0.86180775	-0.20379124	1.077641	0.89061987	0.30916041
363	1.448	0.89653846	0.11378382	-0.06615313	1.0651908	0.039770992	0.10134339	0.81472469	0.24471763	-0.094054903	0.91816062	0.056743302	0.1362974	0.84285985	0.23311693	0.00057854126	0.92741168	0.092734712	0.043231377	0.73459013	0.2622498	-0.051580651	0.84758537	0.037241122	0.088918986	1.1226948	0.51210513	-0.10421608	1.0308782	0.49986627	0.18320818	1.1236559	0.49956222	0.021812873	1.0142707	0.48710203	0.05664887	0.94970211	0.88469104	-0.13491196	0.9394715	0.89863226	0.23654901	1.0226154	0.97213349	-0.073938982	1.024263	0.98158582	0.16394782	0.85698363	1.0347385	0.039725183	1.0459197	1.4272276	-0.11842737	1.0134318	1.4349548	0.2103796	0.96188825	1.4832466	0.041394183	0.8867172	1.0971864	-0.18778917	0.88679394	1.0867618	0.30321871	1.0146017	0.86287791	-0.20470208	1.0842054	0.89280476	0.30844056
364	1.452	0.91418947	0.11184135	-0.06572355	1.0652574	0.039745027	0.10124641	0.82891595	0.24045726	-0.093054799	0.9182987	0.05686613	0.13615972	0.85792671	0.22939843	0.0013240726	0.92763779	0.09281041	0.043080805	0.75141064	0.25431352	-0.049137558	0.84769436	0.037524944	0.088801441	1.1313452	0.51461978	-0.10425689	1.03269	0.49968271	0.18322406	1.1330394	0.50228382	0.021755322	1.0158239	0.48689079	0.056800723	0.95596835	0.886035	-0.1348517	0.94321769	0.89912136	0.23679613	1.027909	0.97343166	-0.073770069	1.0295541	0.98231482	0.16409001	0.86224896	1.0354948	0.039895659	1.0504813	1.4281905	-0.11872067	1.0183627	1.4361708	0.21010637	0.96666504	1.4842032	0.041192494	0.89094471	1.0983109	-0.18781478	0.89210367	1.0877848	0.30331054	1.0183244	0.86390411	-0.20566192	1.0907152	0.89489365	0.30771362
365	1.456	0.93202221	0.10990461	-0.065195742	1.065353	0.039733969	0.10113435	0.84326426	0.23601608	-0.092087551	0.91843269	0.056991723	0.13601186	0.87288096	0.22560477	0.0021313504	0.92791262	0.092939135	0.042929103	0.76738949	0.24612243	-0.046636911	0.84787584	0.037711784	0.088774514	1.1399136	0.51698114	-0.10430586	1.0345424	0.49949823	0.1832206	1.1433794	0.50497103	0.021951594	1.0173937	0.48668566	0.057060035	0.96215313	0.88728254	-0.13475974	0.94613313	0.89951178	0.23722537	1.0332285	0.97463747	-0.07362337	1.0348399	0.98298787	0.1642196	0.86750935	1.036188	0.040048046	1.055039	1.4290778	-0.11900818	1.0232787	1.4373167	0.20983344	0.97143459	1.4850988	0.040973825	0.89518922	1.0993621	-0.18784901	0.8974322	1.0887502	0.30342728	1.0220432	0.86486104	-0.20663627	1.0971268	0.89687471	0.30697856
366	1.46	0.95007613	0.1079493	-0.064575038	1.0654818	0.039728583	0.1010125	0.85779442	0.23139539	-0.091166447	0.91855627	0.057122231	0.13585392	0.88781946	0.22174616	0.0029693842	0.92823413	0.093116738	0.042794802	0.78194686	0.23851507	-0.044419905	0.84817952	0.037829234	0.088845332	1.1483595	0.51918907	-0.1043824	1.0364399	0.49930676	0.18320903	1.1536552	0.50756774	0.022117991	1.0189078	0.48654187	0.057327121	0.96814188	0.88842669	-0.13467431	0.94899711	0.89985331	0.23767067	1.0385705	0.97575638	-0.073498556	1.0401184	0.98360894	0.16433806	0.87276378	1.0368322	0.040188524	1.0595853	1.4298895	-0.11929117	1.0281931	1.438393	0.20957001	0.97618436	1.4859296	0.040731323	0.8994586	1.1003307	-0.18789841	0.90277656	1.0896559	0.30356585	1.025862	0.86573452	-0.20758299	1.1034439	0.89874704	0.30624017
